<svg width="246" height="70" viewBox="0 0 246 70" fill="none" xmlns="http://www.w3.org/2000/svg">
<path d="M69 34.5975C68.9695 36.5472 68.2688 38.2533 66.8979 39.6547C61.4751 45.108 56.0218 50.5308 50.599 55.9536C47.0041 59.5485 43.4397 63.1129 39.8448 66.7078C36.6764 69.8762 32.3503 69.8762 29.1819 66.7383C23.6677 61.2546 18.1535 55.7708 12.6698 50.2871C9.16625 46.7836 5.66274 43.2496 2.1897 39.7156C-0.73496 36.7605 -0.734958 32.343 2.22017 29.3879C6.72903 24.8486 11.3293 20.4007 15.7467 15.7699C20.1947 11.0783 25.0082 6.7827 29.4866 2.15198C32.3198 -0.772681 36.7678 -0.681287 39.662 2.21291C43.531 6.05153 47.3697 9.92062 51.2388 13.7592C52.8534 15.3434 54.529 16.8362 56.1437 18.4204C58.1239 20.4007 60.0127 22.4723 61.993 24.483C63.5772 26.1281 65.2223 27.7123 66.837 29.3574C68.1774 30.8502 68.9391 32.5563 69 34.5975ZM53.9502 22.8074C53.9197 22.777 53.8892 22.716 53.9502 22.8074C53.8892 22.7465 53.9197 22.777 53.9502 22.8074C54.0111 22.8988 54.072 23.0207 54.1025 23.1425C54.1025 23.2339 54.1329 23.2949 54.1025 23.173C54.1939 23.2644 54.133 23.2035 54.072 23.1425C54.0416 23.0207 54.0111 22.9293 53.9502 22.8074ZM53.4018 19.6086C53.3409 19.5476 53.2799 19.4867 53.219 19.3953C53.1885 19.4258 53.1581 19.4258 53.1276 19.4562C53.1885 19.5476 53.219 19.639 53.2799 19.7304C53.5846 20.1874 53.8892 20.6139 54.1634 21.0709C54.2548 21.01 54.3462 20.949 54.4071 20.8881C54.072 20.4616 53.7369 20.0351 53.4018 19.6086ZM24.3379 9.06759C25.8612 7.72712 27.4454 6.44758 28.9382 5.04618C30.5224 3.58385 32.198 2.27384 34.4219 2.09105C35.4578 1.99966 36.524 2.12152 37.5903 2.15198C37.6513 2.18245 37.7122 2.24338 37.6208 2.18244C37.7122 2.21291 37.6513 2.18244 37.5599 2.18244C36.2194 0.9943 32.8987 0.567787 30.7966 2.4871C28.5421 4.55873 26.44 6.7827 24.2465 8.9762C24.1856 9.03713 24.1247 9.06759 24.0638 9.12852C24.0942 9.15899 24.1247 9.18945 24.1247 9.21992C24.2161 9.18945 24.277 9.12852 24.3379 9.06759ZM18.3058 18.786C12.7307 30.4847 14.7109 42.9145 18.9456 50.9878C20.1337 51.3838 21.3828 51.8103 22.6014 52.2369C26.5619 53.6078 30.6747 53.9734 34.7875 54.2171C37.0724 54.3694 39.2659 53.6687 41.4899 53.3945C44.5059 52.9985 47.3087 51.9017 50.1115 50.7136C50.6904 50.4699 50.995 50.0434 51.2388 49.434C52.762 45.4736 53.5846 41.3303 53.9197 37.1261C54.072 35.3896 54.4071 33.714 54.133 31.9165C53.5236 27.8646 52.5183 23.9346 50.9341 20.1569C50.6294 19.4562 50.2943 18.786 50.1115 18.4204C39.1745 12.9367 28.664 14.2771 18.3058 18.786ZM6.6681 26.646C5.41902 28.3521 5.02298 30.0886 5.29716 32.0079C5.72368 35.2677 8.25229 37.2784 9.86695 39.9898C10.1107 39.2891 10.2935 38.7407 10.5067 38.1619C9.56229 36.4558 8.64834 34.7498 7.70392 33.0437C7.00321 31.7947 6.5767 30.4542 6.54624 28.9919C6.51577 28.2607 6.60717 27.5295 6.6681 26.646ZM59.9823 25.397C61.14 26.707 62.2976 28.0779 63.4858 29.3879C64.9786 31.033 66.0753 32.9219 66.2886 35.1458C66.38 36.3035 66.2277 37.4917 66.1972 38.6798C66.4104 38.4361 66.6542 38.1924 66.837 37.9182C68.2384 35.877 68.3298 33.0437 66.6542 31.1244C64.613 28.7786 62.2976 26.646 60.1041 24.4221C60.1041 24.4221 60.0432 24.4221 59.9823 24.4221C59.9823 24.7572 59.9823 25.0618 59.9823 25.397ZM27.8719 9.43317C29.4866 8.27549 31.0708 7.11782 32.655 5.92967C33.8431 5.01571 35.1531 4.37595 36.6459 4.22362C37.3771 4.16269 38.1082 4.22362 38.8394 4.22362C38.8394 4.13222 38.8699 4.07129 38.8394 4.07129C38.7785 4.01036 38.7175 3.94943 38.6566 3.91897C36.128 2.82222 33.6908 2.88315 31.3754 4.49781C30.7661 4.92432 30.2177 5.47269 29.6389 5.96014C28.5117 6.96549 27.3845 7.97084 26.1963 9.03712C26.8056 9.18945 27.2931 9.31131 27.8719 9.43317ZM41.1548 6.41712C38.9308 5.10711 36.6459 4.83292 34.4524 6.17339C32.6854 7.23968 31.1012 8.58015 29.4256 9.79876C29.3952 9.82922 29.4256 9.89016 29.4256 10.012C29.9435 10.1948 30.4615 10.3471 31.0098 10.5299C32.3808 9.76829 33.7517 9.03713 35.0922 8.24503C36.981 7.14828 38.8699 6.14293 41.1548 6.41712ZM27.1712 62.7778C29.3952 64.1792 31.7715 64.6057 34.0868 63.2043C36.0366 62.0467 37.8036 60.6148 39.7838 59.2134C39.144 59.0001 38.6871 58.8478 38.1692 58.6955C36.5545 59.6094 34.9703 60.4625 33.3861 61.3764C31.4668 62.5036 29.4866 63.2957 27.1712 62.7778ZM24.9168 60.4625C26.9275 61.742 28.9077 62.2294 30.9184 61.3155C32.8682 60.432 34.6961 59.3048 36.6459 58.269C35.1531 57.5378 35.0922 57.5683 33.7212 57.9948C30.888 58.8783 28.2375 60.5234 24.9168 60.4625ZM30.6442 66.4641C32.8987 68.4139 36.2803 68.4444 38.291 66.5555C40.3322 64.6362 42.282 62.6255 44.2927 60.6757C44.5059 60.4625 44.8106 60.3711 45.0543 60.2187C43.9271 59.8836 43.3178 60.3711 42.678 60.9499C41.5813 61.9553 40.4236 62.8997 39.3573 63.9355C36.9201 66.3118 34.1478 67.4085 30.6442 66.4641ZM43.7443 8.79341C42.0992 7.63573 40.2408 7.11782 38.352 7.90991C36.3717 8.73247 34.5133 9.85969 32.4417 10.9564C33.4775 11.4134 34.2696 11.6267 35.275 11.2916C38.0778 10.3471 40.6673 8.76294 43.7443 8.79341ZM58.0934 32.8914C57.6669 33.8358 57.3927 34.5975 57.7279 35.6028C58.6723 38.3142 60.1346 40.9038 60.1041 43.9503C60.4697 43.5847 60.7744 43.2191 60.9267 42.7926C61.536 41.0256 61.4142 39.2282 60.5916 37.5526C59.8604 35.9989 58.9769 34.5061 58.0934 32.8914ZM58.5809 31.2768C60.1041 34.7498 62.9679 37.6135 62.4804 41.7568C63.3639 40.3554 63.5467 38.8931 63.3639 37.3393C62.9679 34.2928 60.6525 32.343 59.0683 29.784C58.8551 30.4542 58.7027 30.9112 58.5809 31.2768ZM9.16625 42.5184C9.28811 41.9091 9.34904 41.5435 9.40997 41.2389C8.43508 39.868 7.55159 38.5579 6.5767 37.3393C4.68786 34.963 3.62157 32.343 4.16994 29.2356C3.53017 30.1191 3.31692 31.1549 3.25599 32.1907C3.13413 34.2319 3.74344 36.0903 4.99251 37.6745C6.27205 39.2891 7.67345 40.8124 9.16625 42.5184ZM2.06784 31.5205C0.605513 33.5921 0.849234 36.6386 2.58575 38.4666C4.59646 40.5687 6.6681 42.6098 8.73973 44.6815C8.86159 44.8033 8.98345 44.8643 9.13578 44.9557C9.19671 44.9252 9.25764 44.8947 9.31857 44.8643C9.16625 44.5291 9.07485 44.1331 8.83113 43.8589C7.94764 42.8231 7.03368 41.8177 6.15019 40.7819C5.26669 39.7156 4.32227 38.6798 3.56064 37.5526C2.34203 35.7247 1.94598 33.6835 2.06784 31.5205ZM10.9028 36.5777C11.5425 35.5724 11.5121 34.7193 11.0551 33.8054C10.8723 33.4703 10.7809 33.1047 10.659 32.7391C10.0497 30.9112 9.40997 29.0833 8.89206 27.2249C8.70927 26.5546 8.80066 25.8235 8.73973 24.94C7.76484 26.5242 7.46019 28.0779 7.70392 29.6926C8.13043 32.3126 9.83648 34.2319 10.9028 36.5777ZM59.5253 28.474C59.6776 28.6872 59.83 28.9309 59.9823 29.1442C60.9572 30.5151 61.9625 31.8556 62.9374 33.257C64.0951 34.9326 64.6435 36.8214 64.6435 38.8931C65.4356 37.0042 65.3746 35.1458 64.6435 33.2875C63.6686 30.7588 61.5055 29.1747 59.8909 27.0421C59.769 27.5905 59.6472 28.017 59.5253 28.474ZM11.3902 22.9293C10.2935 23.6909 10.2935 23.6909 10.0497 25.0314C9.53183 28.017 11.2684 30.4542 12.1518 33.1351C12.426 32.2516 12.7307 31.3377 12.6088 30.4847C12.3042 27.956 11.8167 25.4579 11.3902 22.9293ZM32.8987 57.0808C32.8987 57.0199 32.9291 56.9285 32.9291 56.8676C32.2894 56.7152 31.6191 56.3192 31.0098 56.4106C28.268 56.8066 25.5261 57.3245 22.8147 57.812C23.1193 58.4213 23.5763 58.8783 24.3379 59.0611C25.4042 59.3048 26.501 59.3657 27.5368 59.0001C29.3342 58.3908 31.1317 57.7511 32.8987 57.0808ZM36.2499 12.0836C36.2499 12.175 36.2499 12.2664 36.2499 12.3578C36.8896 12.5102 37.5294 12.8453 38.1082 12.7844C40.6368 12.4188 43.1655 11.9313 45.9378 11.4134C45.359 10.9564 44.9629 10.4385 44.4755 10.3471C43.6224 10.1643 42.6476 10.012 41.825 10.2253C39.9666 10.7127 38.1387 11.4439 36.2499 12.0836ZM41.0634 59.6704C39.4182 60.8585 37.8036 61.9857 36.2803 63.1739C34.6352 64.4534 32.8377 65.2455 30.7356 65.215C32.7768 65.8853 34.818 65.9157 36.5545 64.6362C38.4738 63.2348 40.2103 61.5897 42.1601 59.9446C41.6727 59.8532 41.3985 59.7618 41.0634 59.6704ZM56.7834 36.6082C56.0218 39.868 57.6974 42.8535 57.5451 46.0829C58.7637 45.504 58.7941 44.4682 58.8246 43.4933C58.9465 40.9952 57.5755 38.8931 56.7834 36.6082ZM28.7554 55.4966C26.3182 55.4966 23.881 55.4966 21.3828 55.4966C21.5351 55.7708 21.6875 56.045 21.8703 56.3497C24.2465 56.8371 26.4705 55.8622 28.7554 55.4966ZM13.4923 28.6872C13.5532 28.6872 13.6142 28.6872 13.6751 28.6872C13.6751 26.3109 13.6751 23.9651 13.6751 21.5279C13.5532 21.5888 13.4314 21.5888 13.34 21.6497C13.1877 21.7411 13.0658 21.8325 12.9135 21.9239C12.3042 24.2697 13.2486 26.4632 13.4923 28.6872ZM55.4734 40.4773C55.4734 42.8536 55.4734 45.2298 55.4734 47.6671C55.6562 47.5452 55.7781 47.4843 55.8695 47.4233C55.9913 47.3319 56.0827 47.2405 56.2046 47.1492C56.7834 44.8643 55.8695 42.7012 55.4734 40.4773ZM46.669 12.693C44.5669 12.6016 42.6171 13.2109 40.6369 13.5764C42.8303 13.5764 45.0238 13.5764 47.3392 13.5764C47.065 13.2413 46.9127 13.0281 46.669 12.693ZM54.133 45.1384C54.0111 46.2657 53.8588 47.4233 53.7369 48.5506C53.8588 48.5506 53.9806 48.581 54.1025 48.581C54.4376 47.4843 54.1634 46.2961 54.133 45.1384ZM58.6723 27.3163C58.7637 26.707 58.7941 26.2805 58.8551 25.9453C58.6723 25.6407 58.52 25.4274 58.3067 25.0618C58.1848 25.7016 58.0934 26.0672 58.0325 26.4023C58.2153 26.707 58.3981 26.9202 58.6723 27.3163ZM57.7888 29.9668C57.9716 29.4488 58.0934 29.0833 58.2153 28.6872C58.0325 28.474 57.8802 28.2912 57.6669 28.017C57.5451 28.474 57.4537 28.8395 57.3623 29.2051C57.4841 29.3879 57.606 29.6012 57.7888 29.9668ZM39.7229 57.7511C39.7229 57.812 39.6924 57.9034 39.6924 57.9643C40.058 58.0862 40.4236 58.208 40.8501 58.3604C41.0634 58.208 41.2766 58.0557 41.4899 57.9338C41.4899 57.8729 41.4594 57.812 41.4594 57.7511C40.8806 57.7511 40.3017 57.7511 39.7229 57.7511ZM56.9358 23.5081C56.4483 24.4221 56.4788 24.5439 57.3013 25.0618C57.1795 24.4221 57.0576 23.9651 56.9358 23.5081ZM23.1498 11.6571C23.1498 11.7485 23.1803 11.8399 23.1803 11.9618C23.6982 11.9618 24.2465 12.236 24.6426 11.8095C24.6426 11.7181 24.6121 11.6267 24.6121 11.5657C24.1247 11.5657 23.6372 11.5962 23.1498 11.6571ZM24.8254 10.2862C24.8254 10.3471 24.8254 10.4081 24.8254 10.469C25.3738 10.4385 25.9831 10.9869 26.5924 10.2862C25.9221 10.2862 25.3738 10.2862 24.8254 10.2862ZM43.0436 58.208C42.7999 58.4213 42.5866 58.5736 42.282 58.8478C42.7085 58.9087 42.9522 58.9392 43.0741 58.9392C43.3787 58.7259 43.592 58.5736 43.8966 58.3604C43.531 58.2994 43.3178 58.2385 43.0436 58.208ZM22.1444 13.6374C22.3272 13.4851 22.5405 13.3327 22.8756 13.0585C22.3882 13.0585 22.053 13.0585 21.7179 13.0585C21.5351 13.2413 21.3219 13.3937 21.0782 13.6374C21.5047 13.6374 21.7789 13.6374 22.1444 13.6374ZM27.811 10.8955C27.811 10.9869 27.811 11.0783 27.811 11.1697C28.3594 11.2611 28.9382 11.322 29.4866 11.4134C29.4866 11.3525 29.517 11.2611 29.517 11.2002C28.9382 11.1392 28.4203 10.5909 27.811 10.8955ZM11.3902 39.7461C11.2988 39.7461 11.2074 39.7156 11.116 39.7156C11.116 40.264 10.5067 40.7514 10.9942 41.5131C11.1465 40.8124 11.2684 40.2945 11.3902 39.7461ZM43.2569 56.7762C43.2264 56.6543 43.2264 56.5324 43.1959 56.4106C42.7694 56.441 42.3429 56.4715 41.9164 56.5324C41.9164 56.6238 41.9469 56.7457 41.9469 56.8371C42.3734 56.8371 42.8303 56.8066 43.2569 56.7762ZM13.4009 45.0166C13.5228 45.0166 13.6446 44.9861 13.7665 44.9861C13.7056 44.4987 13.6446 44.0417 13.5837 43.5543C13.4923 43.5543 13.3705 43.5847 13.2791 43.5847C13.2791 44.0722 13.34 44.5291 13.4009 45.0166ZM23.0584 14.9474C23.0279 14.856 22.9975 14.7646 22.967 14.6732C22.4796 14.9169 21.9921 15.1911 21.5047 15.4348C21.5351 15.5262 21.5961 15.6176 21.6265 15.6785C22.114 15.4348 22.6014 15.1911 23.0584 14.9474ZM56.3569 27.5295C56.4483 27.5295 56.5702 27.5295 56.6616 27.4991C56.6311 27.103 56.6006 26.707 56.6006 26.3109C56.4788 26.3109 56.3874 26.3109 56.2655 26.3414C56.296 26.7374 56.3265 27.1335 56.3569 27.5295ZM56.6616 32.6782C56.753 32.6782 56.8139 32.6782 56.9053 32.6782C56.9053 32.1602 57.5146 31.7033 56.9662 31.0026C56.8444 31.6423 56.753 32.1602 56.6616 32.6782ZM36.8896 56.8066C36.8592 56.8676 36.8592 56.959 36.8287 57.0199C37.3161 57.1418 37.8036 57.2636 38.291 57.3855C38.3215 57.2941 38.3215 57.2027 38.352 57.1113C37.8645 57.0199 37.3771 56.9285 36.8896 56.8066ZM14.9851 46.2961C14.8937 46.3571 14.8023 46.3875 14.7109 46.4485C14.9851 46.9054 15.2593 47.3624 15.503 47.7889C15.564 47.7585 15.6249 47.728 15.6858 47.6975C15.4726 47.2101 15.2288 46.7531 14.9851 46.2961ZM20.6212 53.882C20.6212 53.9734 20.5907 54.0343 20.5907 54.1257C21.261 54.1257 21.9007 54.1257 22.7537 54.1257C21.9312 54.0343 21.2914 53.9429 20.6212 53.882ZM24.2465 13.4241C24.2465 13.5155 24.2465 13.5765 24.277 13.6678C24.734 13.6374 25.191 13.6069 25.6479 13.5764C25.6479 13.4851 25.6175 13.3937 25.6175 13.3023C25.1605 13.3632 24.7035 13.3937 24.2465 13.4241ZM44.4755 57.1722C44.5059 57.2636 44.5669 57.3245 44.5973 57.4159C44.902 57.2636 45.2066 57.1113 45.5113 56.959C45.4504 56.8676 45.4199 56.7762 45.359 56.6848C45.0543 56.8371 44.7801 56.9894 44.4755 57.1722ZM19.3416 15.252C19.4026 15.3434 19.4635 15.4348 19.5244 15.5262C19.7986 15.313 20.0728 15.1302 20.347 14.9169C20.2861 14.856 20.2556 14.7951 20.1947 14.7037C19.9205 14.8865 19.6463 15.0692 19.3416 15.252ZM10.2935 43.798C10.3544 43.798 10.4153 43.798 10.4458 43.798C10.4458 43.4324 10.4458 43.0668 10.4458 42.7012C10.3849 42.7012 10.3239 42.7012 10.2935 42.7012C10.2935 43.0668 10.2935 43.4324 10.2935 43.798ZM13.5532 47.5452C13.6142 47.5147 13.7056 47.4538 13.7665 47.4233C13.5837 47.1187 13.3705 46.814 13.1877 46.4789C13.1267 46.5094 13.0353 46.5703 12.9744 46.6008C13.1572 46.9054 13.34 47.2405 13.5532 47.5452ZM11.6644 45.4736C11.7558 45.4431 11.8777 45.4431 11.9691 45.4126C11.9081 45.0775 11.8472 44.7729 11.7863 44.4377C11.6949 44.4377 11.6339 44.4682 11.5425 44.4682C11.6035 44.8338 11.6339 45.1689 11.6644 45.4736ZM12.3346 41.8482C12.2432 41.8177 12.1518 41.8177 12.0604 41.7873C12.03 42.1833 11.969 42.5489 11.9386 42.945C12.03 42.945 12.0909 42.9449 12.1823 42.9754C12.2432 42.5794 12.3042 42.2138 12.3346 41.8482ZM55.5344 22.1372C55.5039 22.1372 55.4734 22.1067 55.443 22.1067C55.443 22.3504 55.443 22.5942 55.443 22.8379C55.4734 22.8379 55.5039 22.8379 55.5344 22.8379C55.5344 22.5942 55.5344 22.3504 55.5344 22.1372Z" fill="#0077BB"/>
<path d="M40.4844 40.2631C40.4844 36.2721 40.4844 32.2812 40.4844 28.2598C44.2621 28.2598 47.9788 28.2598 51.7565 28.2598C51.7565 32.2507 51.7565 36.2417 51.7565 40.2935C50.6902 40.2935 49.5935 40.2935 48.4358 40.2935C48.4358 37.0947 48.4358 33.8654 48.4358 30.5751C46.8821 30.5751 45.3893 30.5751 43.866 30.5751C43.866 33.8044 43.866 37.0033 43.866 40.2631C42.7083 40.2631 41.6116 40.2631 40.4844 40.2631Z" fill="#0077BB"/>
<path d="M37.6205 32.587C37.6205 33.4096 37.6205 34.1407 37.6205 34.9024C35.884 34.9024 34.1779 34.9024 32.4109 34.9024C32.4109 35.9382 32.4109 36.9435 32.4109 37.9793C34.2693 37.9793 36.1277 37.9793 38.0165 37.9793C38.0165 38.741 38.0165 39.4721 38.0165 40.2338C35.0614 40.2338 32.0758 40.2338 29.0293 40.2338C29.0293 36.2733 29.0293 32.2823 29.0293 28.2305C32.0149 28.2305 35.0005 28.2305 38.0165 28.2305C38.0165 28.9616 38.0165 29.6623 38.0165 30.4544C36.1582 30.4544 34.2693 30.4544 32.3805 30.4544C32.3805 31.1856 32.3805 31.8254 32.3805 32.5565C34.117 32.587 35.8535 32.587 37.6205 32.587Z" fill="#0077BB"/>
<path d="M20.2855 30.5142C18.9146 30.5142 17.6655 30.5142 16.3555 30.5142C16.3555 29.7221 16.3555 28.9909 16.3555 28.2598C20.1027 28.2598 23.8195 28.2598 27.5971 28.2598C27.5971 28.9909 27.5971 29.7221 27.5971 30.5142C26.3176 30.5142 25.0381 30.5142 23.6976 30.5142C23.6976 33.8044 23.6976 37.0338 23.6976 40.2935C22.5399 40.2935 21.4736 40.2935 20.2855 40.2935C20.2855 37.0338 20.2855 33.8044 20.2855 30.5142Z" fill="#0077BB"/>
<path d="M87.0312 30.6641H84.3711V38H82.9004V30.6641H80.2637V29.4688H87.0312V30.6641Z" fill="#0077BB"/>
<path d="M93.1426 34.1914H89.6387V36.8164H93.7344V38H88.1562V29.4688H93.6934V30.6641H89.6387V33.0195H93.1426V34.1914Z" fill="#0077BB"/>
<path d="M96.4238 34.8301V38H94.9414V29.4688H98.2051C99.1582 29.4688 99.9141 29.7168 100.473 30.2129C101.035 30.709 101.316 31.3652 101.316 32.1816C101.316 33.0176 101.041 33.668 100.49 34.1328C99.9434 34.5977 99.1758 34.8301 98.1875 34.8301H96.4238ZM96.4238 33.6406H98.2051C98.7324 33.6406 99.1348 33.5176 99.4121 33.2715C99.6895 33.0215 99.8281 32.6621 99.8281 32.1934C99.8281 31.7324 99.6875 31.3652 99.4062 31.0918C99.125 30.8145 98.7383 30.6719 98.2461 30.6641H96.4238V33.6406Z" fill="#0077BB"/>
<path d="M109.391 38H107.914V34.209H104.1V38H102.617V29.4688H104.1V33.0195H107.914V29.4688H109.391V38Z" fill="#0077BB"/>
<path d="M117.957 33.957C117.957 34.793 117.812 35.5273 117.523 36.1602C117.234 36.7891 116.82 37.2734 116.281 37.6133C115.746 37.9492 115.129 38.1172 114.43 38.1172C113.738 38.1172 113.121 37.9492 112.578 37.6133C112.039 37.2734 111.621 36.791 111.324 36.166C111.031 35.541 110.883 34.8203 110.879 34.0039V33.5234C110.879 32.6914 111.025 31.957 111.318 31.3203C111.615 30.6836 112.031 30.1973 112.566 29.8613C113.105 29.5215 113.723 29.3516 114.418 29.3516C115.113 29.3516 115.729 29.5195 116.264 29.8555C116.803 30.1875 117.219 30.668 117.512 31.2969C117.805 31.9219 117.953 32.6504 117.957 33.4824V33.957ZM116.475 33.5117C116.475 32.5664 116.295 31.8418 115.936 31.3379C115.58 30.834 115.074 30.582 114.418 30.582C113.777 30.582 113.275 30.834 112.912 31.3379C112.553 31.8379 112.369 32.5469 112.361 33.4648V33.957C112.361 34.8945 112.543 35.6191 112.906 36.1309C113.273 36.6426 113.781 36.8984 114.43 36.8984C115.086 36.8984 115.59 36.6484 115.941 36.1484C116.297 35.6484 116.475 34.918 116.475 33.957V33.5117Z" fill="#0077BB"/>
<path d="M126.184 38H124.707V30.6641H120.951V38H119.475V29.4688H126.184V38Z" fill="#0077BB"/>
<path d="M129.541 38H128.064V29.4688H129.541V38Z" fill="#0077BB"/>
<path d="M138.178 29.4688V38H136.701V30.6641H134.088L133.936 33.9629C133.877 34.9941 133.75 35.7949 133.555 36.3652C133.363 36.9316 133.084 37.3457 132.717 37.6074C132.35 37.8691 131.857 38 131.24 38H130.865V36.8164L131.1 36.7988C131.439 36.7676 131.701 36.6484 131.885 36.4414C132.072 36.2344 132.213 35.9219 132.307 35.5039C132.404 35.082 132.473 34.4629 132.512 33.6465L132.676 29.4688H138.178Z" fill="#0077BB"/>
<path d="M141.424 32.7324H143.17C143.795 32.7324 144.34 32.8398 144.805 33.0547C145.27 33.2695 145.623 33.5742 145.865 33.9688C146.107 34.3633 146.229 34.8203 146.229 35.3398C146.229 36.1367 145.957 36.7773 145.414 37.2617C144.875 37.7461 144.139 37.9922 143.205 38H139.941V29.4688H141.424V32.7324ZM141.424 33.9219V36.8164H143.164C143.664 36.8164 144.053 36.6816 144.33 36.4121C144.611 36.1387 144.752 35.7773 144.752 35.3281C144.752 34.8984 144.615 34.5586 144.342 34.3086C144.068 34.0586 143.689 33.9297 143.205 33.9219H141.424Z" fill="#0077BB"/>
<path d="M152.498 34.1914H148.994V36.8164H153.09V38H147.512V29.4688H153.049V30.6641H148.994V33.0195H152.498V34.1914Z" fill="#0077BB"/>
<path d="M161.006 29.4688V38H159.529V30.6641H156.916L156.764 33.9629C156.705 34.9941 156.578 35.7949 156.383 36.3652C156.191 36.9316 155.912 37.3457 155.545 37.6074C155.178 37.8691 154.686 38 154.068 38H153.693V36.8164L153.928 36.7988C154.268 36.7676 154.529 36.6484 154.713 36.4414C154.9 36.2344 155.041 35.9219 155.135 35.5039C155.232 35.082 155.301 34.4629 155.34 33.6465L155.504 29.4688H161.006Z" fill="#0077BB"/>
<path d="M167.779 34.1914H164.275V36.8164H168.371V38H162.793V29.4688H168.33V30.6641H164.275V33.0195H167.779V34.1914Z" fill="#0077BB"/>
<path d="M172.104 34.3438H171.096V38H169.619V29.4688H171.096V33.0547H171.91L174.418 29.4688H176.234L173.305 33.5527L176.492 38H174.711L172.104 34.3438Z" fill="#0077BB"/>
<path d="M183.477 30.6641H180.816V38H179.346V30.6641H176.709V29.4688H183.477V30.6641Z" fill="#0077BB"/>
<path d="M186.084 34.8301V38H184.602V29.4688H187.865C188.818 29.4688 189.574 29.7168 190.133 30.2129C190.695 30.709 190.977 31.3652 190.977 32.1816C190.977 33.0176 190.701 33.668 190.15 34.1328C189.604 34.5977 188.836 34.8301 187.848 34.8301H186.084ZM186.084 33.6406H187.865C188.393 33.6406 188.795 33.5176 189.072 33.2715C189.35 33.0215 189.488 32.6621 189.488 32.1934C189.488 31.7324 189.348 31.3652 189.066 31.0918C188.785 30.8145 188.398 30.6719 187.906 30.6641H186.084V33.6406Z" fill="#0077BB"/>
<path d="M199.086 33.957C199.086 34.793 198.941 35.5273 198.652 36.1602C198.363 36.7891 197.949 37.2734 197.41 37.6133C196.875 37.9492 196.258 38.1172 195.559 38.1172C194.867 38.1172 194.25 37.9492 193.707 37.6133C193.168 37.2734 192.75 36.791 192.453 36.166C192.16 35.541 192.012 34.8203 192.008 34.0039V33.5234C192.008 32.6914 192.154 31.957 192.447 31.3203C192.744 30.6836 193.16 30.1973 193.695 29.8613C194.234 29.5215 194.852 29.3516 195.547 29.3516C196.242 29.3516 196.857 29.5195 197.393 29.8555C197.932 30.1875 198.348 30.668 198.641 31.2969C198.934 31.9219 199.082 32.6504 199.086 33.4824V33.957ZM197.604 33.5117C197.604 32.5664 197.424 31.8418 197.064 31.3379C196.709 30.834 196.203 30.582 195.547 30.582C194.906 30.582 194.404 30.834 194.041 31.3379C193.682 31.8379 193.498 32.5469 193.49 33.4648V33.957C193.49 34.8945 193.672 35.6191 194.035 36.1309C194.402 36.6426 194.91 36.8984 195.559 36.8984C196.215 36.8984 196.719 36.6484 197.07 36.1484C197.426 35.6484 197.604 34.918 197.604 33.957V33.5117Z" fill="#0077BB"/>
<path d="M207.312 38H205.836V30.6641H202.08V38H200.604V29.4688H207.312V38Z" fill="#0077BB"/>
<path d="M215.914 33.957C215.914 34.793 215.77 35.5273 215.48 36.1602C215.191 36.7891 214.777 37.2734 214.238 37.6133C213.703 37.9492 213.086 38.1172 212.387 38.1172C211.695 38.1172 211.078 37.9492 210.535 37.6133C209.996 37.2734 209.578 36.791 209.281 36.166C208.988 35.541 208.84 34.8203 208.836 34.0039V33.5234C208.836 32.6914 208.982 31.957 209.275 31.3203C209.572 30.6836 209.988 30.1973 210.523 29.8613C211.062 29.5215 211.68 29.3516 212.375 29.3516C213.07 29.3516 213.686 29.5195 214.221 29.8555C214.76 30.1875 215.176 30.668 215.469 31.2969C215.762 31.9219 215.91 32.6504 215.914 33.4824V33.957ZM214.432 33.5117C214.432 32.5664 214.252 31.8418 213.893 31.3379C213.537 30.834 213.031 30.582 212.375 30.582C211.734 30.582 211.232 30.834 210.869 31.3379C210.51 31.8379 210.326 32.5469 210.318 33.4648V33.957C210.318 34.8945 210.5 35.6191 210.863 36.1309C211.23 36.6426 211.738 36.8984 212.387 36.8984C213.043 36.8984 213.547 36.6484 213.898 36.1484C214.254 35.6484 214.432 34.918 214.432 33.957V33.5117Z" fill="#0077BB"/>
<path d="M223.9 35.2227C223.814 36.1328 223.479 36.8438 222.893 37.3555C222.307 37.8633 221.527 38.1172 220.555 38.1172C219.875 38.1172 219.275 37.957 218.756 37.6367C218.24 37.3125 217.842 36.8535 217.561 36.2598C217.279 35.666 217.133 34.9766 217.121 34.1914V33.3945C217.121 32.5898 217.264 31.8809 217.549 31.2676C217.834 30.6543 218.242 30.1816 218.773 29.8496C219.309 29.5176 219.926 29.3516 220.625 29.3516C221.566 29.3516 222.324 29.6074 222.898 30.1191C223.473 30.6309 223.807 31.3535 223.9 32.2871H222.424C222.354 31.6738 222.174 31.2324 221.885 30.9629C221.6 30.6895 221.18 30.5527 220.625 30.5527C219.98 30.5527 219.484 30.7891 219.137 31.2617C218.793 31.7305 218.617 32.4199 218.609 33.3301V34.0859C218.609 35.0078 218.773 35.7109 219.102 36.1953C219.434 36.6797 219.918 36.9219 220.555 36.9219C221.137 36.9219 221.574 36.791 221.867 36.5293C222.16 36.2676 222.346 35.832 222.424 35.2227H223.9Z" fill="#0077BB"/>
<path d="M231.219 30.6641H228.559V38H227.088V30.6641H224.451V29.4688H231.219V30.6641Z" fill="#0077BB"/>
<path d="M236.416 36.0137H233.111L232.42 38H230.879L234.102 29.4688H235.432L238.66 38H237.113L236.416 36.0137ZM233.527 34.8184H236L234.764 31.2793L233.527 34.8184Z" fill="#0077BB"/>
<path d="M245.832 29.4688V38H244.355V34.6426C243.723 34.8027 243.062 34.8828 242.375 34.8828C241.355 34.8828 240.584 34.6582 240.061 34.209C239.537 33.7598 239.273 33.082 239.27 32.1758V29.4688H240.746V32.1875C240.75 32.7305 240.875 33.1172 241.121 33.3477C241.367 33.5781 241.785 33.6934 242.375 33.6934C243.055 33.6934 243.715 33.6113 244.355 33.4473V29.4688H245.832Z" fill="#0077BB"/>
</svg>
